<svg width="70" height="70" viewBox="0 0 70 70" fill="none" xmlns="http://www.w3.org/2000/svg">
<circle cx="35" cy="35" r="35" fill="#F5F9FC"/>
<path fill-rule="evenodd" clip-rule="evenodd" d="M41 29C41 25.691 38.309 23 35 23C31.691 23 29 25.691 29 29C29 32.309 31.691 35 35 35C38.309 35 41 32.309 41 29V29ZM50 50H42.5V47H46.676C45.437 41.321 40.6775 38 35 38C29.3225 38 24.563 41.321 23.324 47H27.5V50H20C20 43.1675 23.8745 38.072 29.363 36.0095C27.314 34.361 26 31.835 26 29C26 24.029 30.029 20 35 20C39.971 20 44 24.029 44 29C44 31.835 42.686 34.361 40.637 36.0095C46.1255 38.072 50 43.1675 50 50V50ZM38.621 42.1355L40.742 44.258L35 50L30.758 45.758L32.879 43.6355L35 45.758L38.621 42.1355Z" fill="#304659"/>
</svg>
