<svg width="70" height="70" viewBox="0 0 70 70" fill="none" xmlns="http://www.w3.org/2000/svg">
<circle cx="35" cy="35" r="35" fill="#F5F9FC"/>
<path fill-rule="evenodd" clip-rule="evenodd" d="M44.5 43.625C44.5 44.315 43.8125 45.5 43.1225 45.5H34.5V30.5H43.1225C43.8125 30.5 44.5 30.435 44.5 31.125V43.625ZM32 43.4325L29.5 40.3563V26.2138L32 29.1425V43.4325ZM27 40.5H25.6225C24.9313 40.5 24.5 39.315 24.5 38.625V26.125C24.5 25.435 24.9313 25.5 25.6225 25.5H27V40.5ZM44.3725 28H34.7925C34.0613 28 33.3663 27.3675 32.8913 26.8113L30.1213 23.7213C29.6463 23.165 28.9512 23 28.2187 23H24.3725C22.9912 23 22 23.4937 22 24.875V39.875C22 41.2563 22.9912 43 24.3725 43H26.6187C27.3712 43 28.0838 43.0263 28.5588 43.6113L31.1212 46.9212C31.5962 47.505 32.3087 48 33.0612 48H44.3725C45.7525 48 47 46.2563 47 44.875V29.875C47 28.4937 45.7525 28 44.3725 28V28Z" fill="#304659"/>
</svg>
